<?xml version="1.0" standalone="no"?>
<!DOCTYPE svg PUBLIC "-//W3C//DTD SVG 20010904//EN"
 "http://www.w3.org/TR/2001/REC-SVG-20010904/DTD/svg10.dtd">
<svg version="1.0" xmlns="http://www.w3.org/2000/svg"
 width="200.000000pt" height="200.000000pt" viewBox="0 0 200.000000 200.000000"
 preserveAspectRatio="xMidYMid meet">
<metadata>
Created by potrace 1.14, written by Peter Selinger 2001-2017
</metadata>
<g transform="translate(0.000000,200.000000) scale(0.100000,-0.100000)"
fill="#000000" stroke="none">
<path d="M913 1903 c-2 -10 -12 -40 -21 -67 l-17 -50 -73 -18 c-563 -137 -818
-798 -492 -1277 297 -438 918 -490 1290 -109 224 230 293 595 169 894 -91 218
-279 395 -500 470 -39 13 -88 27 -109 30 -37 6 -38 8 -55 69 -9 35 -22 65 -28
67 -7 3 -45 5 -85 7 -63 2 -74 -1 -79 -16z"/>
</g>
</svg>
